{"accessors" : [{"bufferView" : 0, "byteOffset" : 0, "componentType" : 5123, "count" : 132, "type" : "SCALAR", "max" : [113], "min" : [0]}, {"bufferView" : 1, "byteOffset" : 0, "componentType" : 5126, "count" : 114, "type" : "VEC3", "max" : [1, 1, 1], "min" : [-1, -1, -1], "name" : "POSITION"}, {"bufferView" : 1, "byteOffset" : 12, "componentType" : 5126, "count" : 114, "type" : "VEC3", "max" : [1.0000044107437134, 1.0000044107437134, 1.0000044107437134], "min" : [-1.0000044107437134, -1.0000044107437134, -1.0000044107437134], "name" : "NORMAL"}, {"bufferView" : 1, "byteOffset" : 24, "componentType" : 5126, "count" : 114, "type" : "VEC2", "max" : [0.875, 1], "min" : [0.125, 0], "name" : "TEXCOORD_0"}, {"bufferView" : 0, "byteOffset" : 264, "componentType" : 5123, "count" : 36, "type" : "SCALAR", "max" : [29], "min" : [0]}, {"bufferView" : 2, "byteOffset" : 0, "componentType" : 5126, "count" : 30, "type" : "VEC3", "max" : [1, 0, 1], "min" : [-1, -0.03276264667510986, -1], "name" : "POSITION"}, {"bufferView" : 2, "byteOffset" : 12, "componentType" : 5126, "count" : 30, "type" : "VEC3", "max" : [1.0000044107437134, 1.0000044107437134, 1.0000044107437134], "min" : [-1.0000044107437134, -1.0000044107437134, -1.0000044107437134], "name" : "NORMAL"}, {"bufferView" : 2, "byteOffset" : 24, "componentType" : 5126, "count" : 30, "type" : "VEC2", "max" : [1, 1], "min" : [0, 0], "name" : "TEXCOORD_0"}, {"bufferView" : 0, "byteOffset" : 336, "componentType" : 5123, "count" : 1152, "type" : "SCALAR", "max" : [1003], "min" : [0]}, {"bufferView" : 3, "byteOffset" : 0, "componentType" : 5126, "count" : 1004, "type" : "VEC3", "max" : [1.0895832777023315, 1.564436674118042, 1], "min" : [-1.0973490476608276, -1, -1], "name" : "POSITION"}, {"bufferView" : 3, "byteOffset" : 12, "componentType" : 5126, "count" : 1004, "type" : "VEC3", "max" : [0.9963642358779907, 1.0000044107437134, 0.9951891303062439], "min" : [-0.996364176273346, -1.0000044107437134, -0.9951891899108887], "name" : "NORMAL"}, {"bufferView" : 3, "byteOffset" : 24, "componentType" : 5126, "count" : 1004, "type" : "VEC2", "max" : [1, 1], "min" : [0, 0], "name" : "TEXCOORD_0"}, {"bufferView" : 0, "byteOffset" : 2640, "componentType" : 5123, "count" : 372, "type" : "SCALAR", "max" : [329], "min" : [0]}, {"bufferView" : 4, "byteOffset" : 0, "componentType" : 5126, "count" : 330, "type" : "VEC3", "max" : [0.4364449977874756, 0.09438452124595642, 0.4342513382434845], "min" : [-0.45229703187942505, 0.03683313727378845, -0.3593845069408417], "name" : "POSITION"}, {"bufferView" : 4, "byteOffset" : 12, "componentType" : 5126, "count" : 330, "type" : "VEC3", "max" : [0.861272394657135, 1.0000044107437134, 0.9149364829063416], "min" : [-0.6993662714958191, -1.0000044107437134, -0.6397493481636047], "name" : "NORMAL"}, {"bufferView" : 4, "byteOffset" : 24, "componentType" : 5126, "count" : 330, "type" : "VEC2", "max" : [0, 1], "min" : [0, 1], "name" : "TEXCOORD_0"}], "asset" : {"generator" : "Aspose.3D 21.8.1", "version" : "2.0"}, "buffers" : [{"uri" : "data:application/octet-stream;base64,", "byteLength" : 57548}], "bufferViews" : [{"buffer" : 0, "byteOffset" : 0, "byteLength" : 3384, "target" : 34963}, {"buffer" : 0, "byteOffset" : 3388, "byteLength" : 4224, "byteStride" : 32, "target" : 34962}, {"buffer" : 0, "byteOffset" : 7616, "byteLength" : 1152, "byteStride" : 32, "target" : 34962}, {"buffer" : 0, "byteOffset" : 8772, "byteLength" : 36864, "byteStride" : 32, "target" : 34962}, {"buffer" : 0, "byteOffset" : 45640, "byteLength" : 11904, "byteStride" : 32, "target" : 34962}], "materials" : [{"name" : "Material", "pbrMetallicRoughness" : {"baseColorFactor" : [0.800000011920929, 0.800000011920929, 0.800000011920929, 1], "metallicFactor" : 0, "roughnessFactor" : 0.4000000059604645}, "emissiveFactor" : [0, 0, 0], "alphaMode" : "OPAQUE", "doubleSided" : true}], "meshes" : [{"primitives" : [{"attributes" : {"POSITION" : 1, "NORMAL" : 2, "TEXCOORD_0" : 3}, "indices" : 0, "material" : 0, "mode" : 4}]}, {"primitives" : [{"attributes" : {"POSITION" : 5, "NORMAL" : 6, "TEXCOORD_0" : 7}, "indices" : 4, "mode" : 4}]}, {"primitives" : [{"attributes" : {"POSITION" : 9, "NORMAL" : 10, "TEXCOORD_0" : 11}, "indices" : 8, "mode" : 4}]}, {"primitives" : [{"attributes" : {"POSITION" : 13, "NORMAL" : 14, "TEXCOORD_0" : 15}, "indices" : 12, "mode" : 4}]}], "nodes" : [{"mesh" : 0, "name" : "Cube"}, {"matrix" : [0.8999999761581421, 0, 0, 0, 0, 0.8999999761581421, 0, 0, 0, 0, 0.8999999761581421, 0, -2.8464431762695312, 0, 0, 1], "mesh" : 1, "name" : "Grid Square"}, {"matrix" : [0.25, 0, 0, 0, 0, 0.25, 0, 0, 0, 0, 0.25, 0, 2.8330559730529785, 0, 0, 1], "mesh" : 2, "name" : "paintBucket"}, {"matrix" : [1, 0, 0, 0, 0, 1, 0, 0, 0, 0, 1, 0, 5.108012676239014, 0, 0, 1], "mesh" : 3, "name" : "PaintSpill"}], "scene" : 0, "scenes" : [{"nodes" : [0, 1, 2, 3]}]}